<svg>
    <symbol xmlns="http://www.w3.org/2000/svg" viewBox="0 0 50 40" id="logo">
        <path d="M20.4506 0.259178C19.0919 0.696909 17.9456 1.47652 17.6601 2.15634L17.5398 2.4419L15.6561 2.43301L15.4116 1.93006C15.2253 1.54668 15.063 1.3708 14.7263 1.18701L14.2864 0.945911H11.1062C6.93498 0.945911 6.40895 1.15341 6.40895 2.80355V3.26796L5.69955 3.61478C3.08441 4.8924 1.03538 7.41602 0.225789 10.3546L0.000346207 11.1748V21.2584C0.000346207 32.2698 -0.0327188 31.5584 0.547422 33.1166C1.84798 36.6086 4.86291 39.1352 8.54915 39.8258C9.78859 40.0581 40.2114 40.0581 41.4508 39.8258C45.1371 39.1362 48.152 36.6096 49.4526 33.1166C50.0327 31.5584 49.9997 32.2698 49.9997 21.2584V11.1748L49.7832 10.4031C48.649 6.36468 45.7433 3.61182 41.6342 2.67905C41.02 2.53972 40.2134 2.50514 36.6765 2.46858L32.4532 2.42412L32.3369 2.14745C32.0504 1.46565 30.8209 0.645527 29.4663 0.233488C28.3992 -0.0915987 21.4756 -0.0718366 20.4506 0.259178V0.259178ZM40.0601 5.82221C43.053 6.12555 45.3856 7.95256 46.3976 10.7874L46.6731 11.5591L46.7012 20.871C46.7332 31.5189 46.7653 31.0218 45.9236 32.7342C44.9758 34.662 43.064 36.1205 40.9288 36.5453C39.7856 36.7726 10.2114 36.7726 9.07118 36.5453C6.91594 36.1145 5.0112 34.6284 4.00923 32.5949C3.24473 31.0426 3.26677 31.4072 3.29883 20.871L3.32689 11.5591L3.63149 10.7163C4.60841 8.01679 6.9961 6.11666 9.77356 5.82912C10.9589 5.7066 38.8517 5.69968 40.0601 5.82122V5.82221ZM9.51706 6.88837C6.37889 7.34191 4.35391 9.89419 4.35391 13.398V14.6954H11.0661L11.2915 14.2369C12.2845 12.2123 14.2844 10.0167 16.4357 8.58692C17.2402 8.05236 19.3614 6.97631 19.6109 6.97631C19.669 6.97631 19.7161 6.93284 19.7161 6.87948C19.7161 6.76091 10.3457 6.76782 9.51706 6.88738V6.88837ZM30.2839 6.85478C30.2839 6.90023 30.4492 6.99509 30.6506 7.06524C33.7206 8.12943 37.462 11.4702 38.7385 14.2863L38.9249 14.6964H45.6471V13.399C45.6471 10.1284 44.1341 7.98418 41.1462 7.01683C40.5581 6.82612 30.2849 6.67395 30.2849 6.85576L30.2839 6.85478ZM24.0707 7.51779C12.6663 8.61558 7.13237 20.9748 14.0931 29.7976C21.7892 39.5512 37.8768 34.7015 38.8858 22.3236C39.5611 14.0343 32.2528 6.73126 24.0707 7.51779V7.51779ZM26.6638 10.9455C33.2327 11.8753 37.3277 18.963 34.8278 25.0774C31.9482 32.1216 22.708 33.9279 17.4136 28.4804C10.3908 21.2544 16.5819 9.51871 26.6638 10.9455V10.9455ZM23.8723 12.5719C17.9617 13.395 14.553 19.3474 16.8886 24.7701C19.5698 30.9942 28.5605 31.7659 32.376 26.1001C36.5512 19.9007 31.2949 11.5394 23.8723 12.5719V12.5719ZM27.7168 13.9098C28.8581 14.2596 29.7118 15.0768 29.7318 15.8366C29.7779 17.5886 26.2289 17.5332 25.0416 15.7635C24.1388 14.4187 25.747 13.3051 27.7168 13.9098V13.9098ZM22.701 27.2552C23.7821 27.4805 25.3923 28.4557 25.3923 28.8846C25.3923 29.8865 21.7581 29.2393 20.697 28.0486C19.9636 27.2245 20.8564 26.8708 22.701 27.2552V27.2552ZM41.9128 30.9991C39.8938 31.6167 40.2846 34.3863 42.3897 34.3794C44.5309 34.3725 44.6902 31.2629 42.564 30.9734C42.3486 30.9438 42.056 30.9556 41.9128 31.0001V30.9991Z"></path>
  </symbol>
    <symbol id="search" width="60" height="60" viewBox="0 0 40 40" xmlns="http://www.w3.org/2000/svg">
        <path d="M21.07 16.83L19 14.71C18.5547 14.2868 17.9931 14.0063 17.3872 13.9047C16.7813 13.8032 16.1589 13.8851 15.6 14.14L14.7 13.24C15.7606 11.8229 16.2449 10.0567 16.0555 8.29684C15.8662 6.537 15.0172 4.91423 13.6794 3.7552C12.3417 2.59618 10.6145 1.98696 8.84566 2.05019C7.07679 2.11341 5.39755 2.84439 4.14597 4.09597C2.89439 5.34755 2.16341 7.0268 2.10018 8.79567C2.03696 10.5645 2.64618 12.2917 3.8052 13.6294C4.96422 14.9672 6.58699 15.8162 8.34684 16.0055C10.1067 16.1949 11.8729 15.7106 13.29 14.65L14.18 15.54C13.8951 16.0996 13.793 16.7346 13.8881 17.3553C13.9832 17.9761 14.2706 18.5513 14.71 19L16.83 21.12C17.3925 21.6818 18.155 21.9974 18.95 21.9974C19.745 21.9974 20.5075 21.6818 21.07 21.12C21.3557 20.8406 21.5828 20.5069 21.7378 20.1386C21.8928 19.7702 21.9726 19.3746 21.9726 18.975C21.9726 18.5754 21.8928 18.1798 21.7378 17.8114C21.5828 17.4431 21.3557 17.1094 21.07 16.83ZM12.59 12.59C11.8902 13.288 10.9993 13.7629 10.0297 13.9549C9.06018 14.1468 8.0555 14.047 7.1426 13.6682C6.22971 13.2894 5.44956 12.6485 4.90071 11.8265C4.35186 11.0046 4.05894 10.0384 4.05894 9.05C4.05894 8.06163 4.35186 7.09544 4.90071 6.27347C5.44956 5.45149 6.22971 4.81062 7.1426 4.43182C8.0555 4.05301 9.06018 3.95325 10.0297 4.14515C10.9993 4.33706 11.8902 4.812 12.59 5.51C13.0556 5.97446 13.4251 6.52621 13.6771 7.13367C13.9292 7.74112 14.0589 8.39233 14.0589 9.05C14.0589 9.70768 13.9292 10.3589 13.6771 10.9663C13.4251 11.5738 13.0556 12.1255 12.59 12.59ZM19.66 19.66C19.567 19.7537 19.4564 19.8281 19.3346 19.8789C19.2127 19.9297 19.082 19.9558 18.95 19.9558C18.818 19.9558 18.6873 19.9297 18.5654 19.8789C18.4436 19.8281 18.333 19.7537 18.24 19.66L16.12 17.54C16.0263 17.447 15.9519 17.3364 15.9011 17.2146C15.8503 17.0927 15.8242 16.962 15.8242 16.83C15.8242 16.698 15.8503 16.5673 15.9011 16.4454C15.9519 16.3236 16.0263 16.213 16.12 16.12C16.213 16.0263 16.3236 15.9519 16.4454 15.9011C16.5673 15.8503 16.698 15.8242 16.83 15.8242C16.962 15.8242 17.0927 15.8503 17.2146 15.9011C17.3364 15.9519 17.447 16.0263 17.54 16.12L19.66 18.24C19.7537 18.333 19.8281 18.4436 19.8789 18.5654C19.9297 18.6873 19.9558 18.818 19.9558 18.95C19.9558 19.082 19.9297 19.2127 19.8789 19.3346C19.8281 19.4564 19.7537 19.567 19.66 19.66Z"/>
    </symbol>
    <symbol id="github" width="20" height="20" viewBox="0 0 25 25" fill="none" xmlns="http://www.w3.org/2000/svg">
        <path d="M9.07032 20.5029C9.0703 20.3563 9.03802 20.2114 8.97578 20.0786C8.91353 19.9458 8.82284 19.8284 8.71014 19.7345C8.59743 19.6407 8.46546 19.5728 8.32359 19.5356C8.18171 19.4985 8.03341 19.493 7.88917 19.5195C6.58009 19.7598 4.92726 19.7959 4.4878 18.5615C4.10461 17.6055 3.46987 16.7711 2.65089 16.1465C2.59246 16.1148 2.53677 16.0782 2.48439 16.0372C2.41272 15.8481 2.2854 15.6852 2.11925 15.5699C1.95311 15.4547 1.75592 15.3925 1.55372 15.3916H1.54884C1.28444 15.3916 1.03077 15.4962 0.843354 15.6827C0.655937 15.8692 0.55004 16.1224 0.548842 16.3868C0.544932 17.2022 1.35984 17.7247 1.69044 17.9014C2.08029 18.2931 2.39359 18.7541 2.61427 19.2608C2.97853 20.2842 4.03712 21.837 7.08009 21.6368C7.08109 21.6719 7.08204 21.7051 7.08253 21.7354L7.08692 22.003C7.08692 22.2682 7.19228 22.5226 7.37982 22.7101C7.56735 22.8976 7.82171 23.003 8.08692 23.003C8.35214 23.003 8.60649 22.8976 8.79403 22.7101C8.98157 22.5226 9.08692 22.2682 9.08692 22.003L9.08204 21.6846C9.07716 21.4951 9.07032 21.2207 9.07032 20.5029ZM19.7373 5.37694C19.7691 5.25194 19.8003 5.11327 19.8277 4.95702C19.9894 3.84261 19.8484 2.70521 19.4195 1.66402C19.3653 1.52828 19.2822 1.40603 19.1758 1.30582C19.0694 1.20562 18.9425 1.12989 18.8037 1.08395C18.4477 0.963828 17.1333 0.727498 14.6197 2.33395C12.5302 1.84224 10.3551 1.84224 8.26565 2.33395C5.76222 0.751028 4.4546 0.965828 4.10206 1.07911C3.95993 1.12319 3.82946 1.19851 3.72021 1.29957C3.61097 1.40062 3.52572 1.52483 3.47071 1.66311C3.03301 2.72429 2.89355 3.88488 3.06739 5.01955C3.09181 5.14748 3.11817 5.26565 3.14552 5.37404C2.31709 6.47748 1.87583 7.8234 1.89015 9.20314C1.88745 9.51097 1.90163 9.81873 1.93263 10.125C2.26663 14.7275 5.26663 16.1094 7.35694 16.584C7.31349 16.709 7.27394 16.8428 7.23878 16.9844C7.17612 17.2417 7.21805 17.5133 7.35538 17.7398C7.49271 17.9662 7.71422 18.1289 7.97135 18.1923C8.22848 18.2556 8.50024 18.2144 8.72703 18.0777C8.95382 17.941 9.11714 17.7199 9.18116 17.4629C9.24479 17.1297 9.40788 16.8236 9.64894 16.585C9.7947 16.4574 9.90023 16.2902 9.9527 16.1037C10.0052 15.9172 10.0023 15.7195 9.94447 15.5346C9.88663 15.3497 9.77631 15.1856 9.62693 15.0623C9.47754 14.9389 9.29554 14.8617 9.10304 14.8399C5.64894 14.4453 4.14942 13.0381 3.92384 9.94143C3.89885 9.69616 3.88761 9.44968 3.89015 9.20315C3.87411 8.2198 4.19898 7.26123 4.80958 6.49026C4.87093 6.40988 4.93628 6.33263 5.00538 6.25881C5.12781 6.12181 5.21013 5.95373 5.2433 5.77301C5.27646 5.5923 5.25919 5.40594 5.19338 5.2344C5.12592 5.05393 5.07397 4.86803 5.03811 4.67873C4.95664 4.14044 4.98337 3.59132 5.11671 3.06349C5.98585 3.30896 6.80383 3.70853 7.53171 4.24317C7.65208 4.32334 7.78828 4.3767 7.93108 4.39961C8.07388 4.42253 8.21994 4.41447 8.35935 4.37599C10.3805 3.82749 12.5113 3.82783 14.5322 4.37699C14.6724 4.41543 14.8192 4.42303 14.9626 4.39926C15.106 4.37549 15.2425 4.32091 15.3628 4.2393C16.0872 3.70244 16.9018 3.2993 17.768 3.04887C17.9008 3.56402 17.9305 4.10032 17.8554 4.62699C17.8192 4.83453 17.7626 5.03799 17.6865 5.23442C17.6207 5.40596 17.6034 5.59232 17.6366 5.77303C17.6697 5.95375 17.7521 6.12183 17.8745 6.25883C17.9516 6.34574 18.0288 6.43949 18.0981 6.52738C18.7044 7.2853 19.0238 8.23285 19 9.20314C19.0018 9.46275 18.9893 9.72226 18.9624 9.98048C18.7422 13.0361 17.2368 14.4443 13.7666 14.8398C13.5741 14.8618 13.392 14.9392 13.2427 15.0626C13.0933 15.1861 12.983 15.3503 12.9253 15.5353C12.8675 15.7202 12.8647 15.918 12.9172 16.1046C12.9698 16.2911 13.0754 16.4583 13.2212 16.5859C13.4698 16.831 13.6333 17.1493 13.6875 17.4941C13.7551 17.7618 13.7861 18.0375 13.7798 18.3135V20.6475C13.77 21.2949 13.77 21.7803 13.77 22.0029C13.77 22.2682 13.8754 22.5225 14.0629 22.71C14.2504 22.8976 14.5048 23.0029 14.77 23.0029C15.0352 23.0029 15.2896 22.8976 15.4771 22.71C15.6647 22.5225 15.77 22.2682 15.77 22.0029C15.77 21.7861 15.77 21.3106 15.7798 20.6631V18.3135C15.7878 17.8713 15.7358 17.4301 15.625 17.002C15.5933 16.8614 15.5545 16.7226 15.5088 16.586C17.03 16.3332 18.4123 15.5489 19.4094 14.3726C20.4065 13.1962 20.9539 11.7042 20.9541 10.1621C20.987 9.84355 21.0024 9.5234 21 9.20314C21.0222 7.82191 20.5773 6.47366 19.7373 5.37696L19.7373 5.37694Z" fill="currentColor"/>
    </symbol>
</svg>